<svg xmlns="http://www.w3.org/2000/svg" viewBox="0 0 512 512" role="img" aria-label="SoberTrack icon"><defs><linearGradient id="bg" x1="0" y1="0" x2="1" y2="1"><stop offset="0" stop-color="#101827"/><stop offset="1" stop-color="#2563eb"/></linearGradient><linearGradient id="liq" x1="0" y1="0" x2="0" y2="1"><stop offset="0" stop-color="#38bdf8"/><stop offset="1" stop-color="#22c55e"/></linearGradient></defs><rect width="512" height="512" rx="116" fill="url(#bg)"/><path d="M162 96h188l-26 304a46 46 0 0 1-46 42h-44a46 46 0 0 1-46-42L162 96Z" fill="none" stroke="#e5f2ff" stroke-width="24" stroke-linejoin="round"/><path d="M195 270c40-24 72 24 122-2l-12 120a28 28 0 0 1-28 26h-42a28 28 0 0 1-28-26l-12-118Z" fill="url(#liq)"/><circle cx="220" cy="185" r="23" fill="#e5f2ff"/><circle cx="292" cy="205" r="18" fill="#e5f2ff" opacity=".75"/><path d="M126 96h260" stroke="#e5f2ff" stroke-width="26" stroke-linecap="round"/></svg>
